<svg width="100" height="100" viewBox="0 0 100 100" xmlns="http://www.w3.org/2000/svg">
  <defs>
    <pattern id="islamic-pattern" patternUnits="userSpaceOnUse" width="100" height="100">
      <path d="M50,0 L100,25 L100,75 L50,100 L0,75 L0,25 Z" fill="none" stroke="currentColor" stroke-width="0.5" />
      <path d="M50,0 L0,25 M50,0 L100,25 M0,25 L50,50 M100,25 L50,50 M0,75 L50,50 M100,75 L50,50 M0,75 L50,100 M100,75 L50,100" fill="none" stroke="currentColor" stroke-width="0.5" />
      <circle cx="50" cy="50" r="20" fill="none" stroke="currentColor" stroke-width="0.5" />
      <circle cx="50" cy="50" r="10" fill="none" stroke="currentColor" stroke-width="0.5" />
      <path d="M50,30 L50,10 M70,50 L90,50 M50,70 L50,90 M30,50 L10,50" fill="none" stroke="currentColor" stroke-width="0.5" />
      <path d="M60,40 L80,20 M60,60 L80,80 M40,60 L20,80 M40,40 L20,20" fill="none" stroke="currentColor" stroke-width="0.5" />
    </pattern>
  </defs>
  <rect width="100" height="100" fill="url(#islamic-pattern)" />
</svg>

